<?xml version="1.0" encoding="UTF-8"?>
<!DOCTYPE svg PUBLIC "-//W3C//DTD SVG 1.1//EN" "http://www.w3.org/Graphics/SVG/1.1/DTD/svg11.dtd">
<!-- Creator: CorelDRAW 2020 (64 Bit) -->
<svg xmlns="http://www.w3.org/2000/svg" xml:space="preserve" width="51.3708mm" height="62.992mm" version="1.1" style="shape-rendering:geometricPrecision; text-rendering:geometricPrecision; image-rendering:optimizeQuality; fill-rule:evenodd; clip-rule:evenodd"
viewBox="0 0 1376.03 1687.32"
 xmlns:xlink="http://www.w3.org/1999/xlink"
 xmlns:xodm="http://www.corel.com/coreldraw/odm/2003">
 <defs>
  <style type="text/css">
   <![CDATA[
    .fil1 {fill:#06A3DA}
    .fil0 {fill:white}
   ]]>
  </style>
 </defs>
 <g id="Camada_x0020_1">
  <metadata id="CorelCorpID_0Corel-Layer"/>
  <g id="_1764756009440">
   <path class="fil0" d="M844.66 1681.49c-470,-26.21 -327.69,-612.27 531.38,-912.33 -156.09,-256.39 -312.19,-512.78 -468.29,-769.16 -818.5,353.11 -1131.53,787.3 -740.05,1334.51 -45.95,-293.55 66.17,-541.94 337.27,-744.9 -43.67,-40.44 -87.35,-80.88 -131.02,-121.32 180.36,-19.41 360.72,-38.82 541.08,-58.23 -30.73,175.51 -61.47,351.02 -92.2,526.53 -42.06,-45.29 -84.11,-90.59 -126.17,-135.88 -430.71,313.02 -531.95,954.37 148.01,880.78z"/>
   <path class="fil1" d="M685.19 1209.06c121.6,-156.43 349.63,-320.72 690.85,-439.9 -156.09,-256.39 -312.19,-512.78 -468.29,-769.16 -279.55,120.6 -500.08,250.66 -653.77,391.45 -16.16,57.71 -24.82,118.55 -24.82,181.42 0,88.05 16.98,172.13 47.79,249.18 56.15,-83.16 132.13,-160.64 228.03,-232.44 -43.67,-40.44 -87.35,-80.88 -131.02,-121.32 180.36,-19.41 360.72,-38.82 541.08,-58.23 -30.73,175.51 -61.47,351.02 -92.2,526.53 -42.06,-45.29 -84.11,-90.59 -126.17,-135.88 -103.85,75.47 -188.47,170.04 -247.67,269.07 67.57,61.47 147.77,109.34 236.21,139.29z"/>
   <path class="fil1" d="M715.63 1615.91c-103.71,-66.35 -101.87,-185.21 -47.81,-308.12 59.09,70.47 155.79,-2.45 260.3,-105.18 84.29,108.72 168.58,217.45 252.87,326.18 -158.73,106.01 -323.78,177.71 -465.36,87.13z"/>
  </g>
 </g>
</svg>
