<svg id="visual" viewBox="0 0 960 540" width="960" height="540" xmlns="http://www.w3.org/2000/svg" xmlns:xlink="http://www.w3.org/1999/xlink" version="1.1"><g stroke-width="1" stroke-linejoin="bevel"><path d="M479 303L558 301L455 219Z" fill="#6084fc" stroke="#6084fc"></path><path d="M558 301L590 232L455 219Z" fill="#5f7ffb" stroke="#5f7ffb"></path><path d="M455 219L401 330L479 303Z" fill="#5d77fa" stroke="#5d77fa"></path><path d="M479 303L581 399L558 301Z" fill="#5e79fb" stroke="#5e79fb"></path><path d="M590 232L484 103L455 219Z" fill="#5f80fc" stroke="#5f80fc"></path><path d="M455 219L370 187L401 330Z" fill="#5f82fc" stroke="#5f82fc"></path><path d="M484 103L370 187L455 219Z" fill="#5f82fc" stroke="#5f82fc"></path><path d="M456 409L581 399L479 303Z" fill="#5d74f9" stroke="#5d74f9"></path><path d="M558 301L715 288L590 232Z" fill="#5f7ffb" stroke="#5f7ffb"></path><path d="M401 330L456 409L479 303Z" fill="#5e7dfb" stroke="#5e7dfb"></path><path d="M733 178L630 103L590 232Z" fill="#6084fc" stroke="#6084fc"></path><path d="M590 232L630 103L484 103Z" fill="#5f7ffb" stroke="#5f7ffb"></path><path d="M581 399L715 288L558 301Z" fill="#5e7bfb" stroke="#5e7bfb"></path><path d="M715 288L733 178L590 232Z" fill="#5e7dfb" stroke="#5e7dfb"></path><path d="M733 178L731 113L630 103Z" fill="#5d74f9" stroke="#5d74f9"></path><path d="M708 0L576 0L630 103Z" fill="#5d77fa" stroke="#5d77fa"></path><path d="M630 103L576 0L484 103Z" fill="#5f82fc" stroke="#5f82fc"></path><path d="M484 103L338 67L370 187Z" fill="#5d77fa" stroke="#5d77fa"></path><path d="M392 0L338 67L484 103Z" fill="#5e7dfb" stroke="#5e7dfb"></path><path d="M224 344L330 447L401 330Z" fill="#5e7dfb" stroke="#5e7dfb"></path><path d="M576 0L444 0L484 103Z" fill="#5d72f9" stroke="#5d72f9"></path><path d="M401 330L330 447L456 409Z" fill="#5e7dfb" stroke="#5e7dfb"></path><path d="M456 409L456 540L581 399Z" fill="#5d77fa" stroke="#5d77fa"></path><path d="M218 239L401 330L370 187Z" fill="#5e7bfb" stroke="#5e7bfb"></path><path d="M444 0L392 0L484 103Z" fill="#5d72f9" stroke="#5d72f9"></path><path d="M581 399L759 412L715 288Z" fill="#5d74f9" stroke="#5d74f9"></path><path d="M715 288L876 219L733 178Z" fill="#5e7bfb" stroke="#5e7bfb"></path><path d="M733 178L848 90L731 113Z" fill="#5d74f9" stroke="#5d74f9"></path><path d="M641 540L759 412L581 399Z" fill="#6084fc" stroke="#6084fc"></path><path d="M229 126L218 239L370 187Z" fill="#5f80fc" stroke="#5f80fc"></path><path d="M330 447L456 540L456 409Z" fill="#5e7dfb" stroke="#5e7dfb"></path><path d="M218 239L224 344L401 330Z" fill="#5f7ffb" stroke="#5f7ffb"></path><path d="M731 113L708 0L630 103Z" fill="#5f80fc" stroke="#5f80fc"></path><path d="M338 67L229 126L370 187Z" fill="#5d72f9" stroke="#5d72f9"></path><path d="M214 0L229 126L338 67Z" fill="#5d77fa" stroke="#5d77fa"></path><path d="M456 540L641 540L581 399Z" fill="#5e7bfb" stroke="#5e7bfb"></path><path d="M883 474L847 332L759 412Z" fill="#5d72f9" stroke="#5d72f9"></path><path d="M759 412L847 332L715 288Z" fill="#6084fc" stroke="#6084fc"></path><path d="M731 113L836 0L708 0Z" fill="#5d76fa" stroke="#5d76fa"></path><path d="M330 447L341 540L456 540Z" fill="#6084fc" stroke="#6084fc"></path><path d="M254 540L341 540L330 447Z" fill="#5e7bfb" stroke="#5e7bfb"></path><path d="M641 540L722 540L759 412Z" fill="#6084fc" stroke="#6084fc"></path><path d="M137 397L214 438L224 344Z" fill="#6084fc" stroke="#6084fc"></path><path d="M224 344L214 438L330 447Z" fill="#5e79fb" stroke="#5e79fb"></path><path d="M847 332L876 219L715 288Z" fill="#5d76fa" stroke="#5d76fa"></path><path d="M876 219L848 90L733 178Z" fill="#5e7dfb" stroke="#5e7dfb"></path><path d="M106 342L224 344L218 239Z" fill="#5d72f9" stroke="#5d72f9"></path><path d="M106 342L137 397L224 344Z" fill="#5e7dfb" stroke="#5e7dfb"></path><path d="M392 0L214 0L338 67Z" fill="#5d77fa" stroke="#5d77fa"></path><path d="M214 438L254 540L330 447Z" fill="#5f7ffb" stroke="#5f7ffb"></path><path d="M960 0L836 0L848 90Z" fill="#5e79fb" stroke="#5e79fb"></path><path d="M848 90L836 0L731 113Z" fill="#5d72f9" stroke="#5d72f9"></path><path d="M106 342L218 239L92 242Z" fill="#5e7bfb" stroke="#5e7bfb"></path><path d="M214 438L160 540L254 540Z" fill="#5e7bfb" stroke="#5e7bfb"></path><path d="M92 242L218 239L229 126Z" fill="#5d77fa" stroke="#5d77fa"></path><path d="M86 67L92 242L229 126Z" fill="#5f7ffb" stroke="#5f7ffb"></path><path d="M850 540L883 474L759 412Z" fill="#5d72f9" stroke="#5d72f9"></path><path d="M847 332L960 217L876 219Z" fill="#5d77fa" stroke="#5d77fa"></path><path d="M722 540L850 540L759 412Z" fill="#5d74f9" stroke="#5d74f9"></path><path d="M960 365L960 217L847 332Z" fill="#5d76fa" stroke="#5d76fa"></path><path d="M876 219L960 132L848 90Z" fill="#5d76fa" stroke="#5d76fa"></path><path d="M960 217L960 132L876 219Z" fill="#5e79fb" stroke="#5e79fb"></path><path d="M960 410L847 332L883 474Z" fill="#5d74f9" stroke="#5d74f9"></path><path d="M960 410L960 365L847 332Z" fill="#5e79fb" stroke="#5e79fb"></path><path d="M0 469L160 540L137 397Z" fill="#5f7ffb" stroke="#5f7ffb"></path><path d="M137 397L160 540L214 438Z" fill="#5e7bfb" stroke="#5e7bfb"></path><path d="M214 0L86 67L229 126Z" fill="#5f82fc" stroke="#5f82fc"></path><path d="M960 540L960 410L883 474Z" fill="#5d74f9" stroke="#5d74f9"></path><path d="M214 0L100 0L86 67Z" fill="#5f82fc" stroke="#5f82fc"></path><path d="M960 132L960 0L848 90Z" fill="#5d72f9" stroke="#5d72f9"></path><path d="M0 136L92 242L86 67Z" fill="#5d72f9" stroke="#5d72f9"></path><path d="M0 136L0 208L92 242Z" fill="#5f7ffb" stroke="#5f7ffb"></path><path d="M92 242L0 312L106 342Z" fill="#5f80fc" stroke="#5f80fc"></path><path d="M106 342L0 469L137 397Z" fill="#5e7dfb" stroke="#5e7dfb"></path><path d="M0 208L0 312L92 242Z" fill="#5d77fa" stroke="#5d77fa"></path><path d="M0 0L0 136L86 67Z" fill="#5d77fa" stroke="#5d77fa"></path><path d="M850 540L960 540L883 474Z" fill="#5e79fb" stroke="#5e79fb"></path><path d="M0 312L0 469L106 342Z" fill="#5d76fa" stroke="#5d76fa"></path><path d="M100 0L0 0L86 67Z" fill="#5d77fa" stroke="#5d77fa"></path><path d="M0 469L0 540L160 540Z" fill="#5d77fa" stroke="#5d77fa"></path></g></svg>